<?xml version="1.0" standalone="no"?>
<!DOCTYPE svg PUBLIC "-//W3C//DTD SVG 20010904//EN" "http://www.w3.org/TR/2001/REC-SVG-20010904/DTD/svg10.dtd">
<svg version="1.0" xmlns="http://www.w3.org/2000/svg"
    width="290.000000pt" height="288.000000pt" viewBox="0 0 290.000000 288.000000"
    preserveAspectRatio="xMidYMid meet" fill="#FFFF00">

    <g transform="translate(0.000000,288.000000) scale(0.100000,-0.100000)"
        fill="#000000" stroke="none">
        <path
            d="M1340 2730 c-248 -34 -502 -183 -686 -401 -161 -192 -243 -382 -275
-642 -26 -215 33 -479 153 -688 35 -61 150 -206 232 -292 20 -21 36 -42 36
-45 0 -7 -96 -139 -201 -277 -36 -47 -138 -164 -191 -219 -40 -40 -47 -63 -25
-72 17 -6 161 62 279 133 134 80 295 180 356 221 l52 36 73 -17 c39 -9 104
-20 142 -23 41 -4 77 -13 88 -22 17 -15 13 -17 -49 -38 -36 -13 -68 -25 -70
-27 -3 -3 -2 -17 2 -32 6 -24 10 -26 38 -20 106 22 153 25 278 15 73 -5 139
-10 145 -10 7 0 20 11 29 25 23 36 5 55 -53 55 -24 0 -60 7 -81 16 l-37 17 35
8 c19 4 74 15 123 23 101 19 158 37 242 76 201 95 418 301 520 492 21 40 46
87 55 103 20 35 54 138 77 233 12 49 16 110 16 227 -1 147 -3 170 -32 279
-121 457 -513 817 -943 866 -95 11 -247 11 -328 0z m474 -99 c169 -54 308
-140 440 -275 99 -101 159 -187 222 -321 131 -278 135 -614 10 -880 -114 -243
-307 -446 -531 -557 -123 -62 -195 -81 -272 -72 -74 7 -127 22 -85 23 27 1 29
27 2 36 -17 5 -20 15 -20 66 0 63 -21 99 -58 99 -37 0 -30 13 26 50 176 116
383 396 492 666 40 96 105 195 143 216 29 15 65 -5 83 -47 18 -44 10 -79 -22
-94 -52 -23 -18 -58 38 -39 79 26 138 118 145 223 4 60 0 82 -26 155 -21 57
-31 103 -31 142 0 69 -31 158 -71 202 l-28 31 26 -65 c36 -87 42 -183 14 -227
-33 -53 -132 -118 -234 -154 -49 -17 -71 -42 -97 -109 l-22 -55 36 -32 c41
-38 43 -45 18 -81 -11 -15 -40 -70 -67 -122 -26 -52 -55 -108 -63 -125 -9 -16
-27 -46 -41 -65 -47 -66 -106 -145 -111 -150 -3 -3 -32 -36 -63 -75 -70 -85
-122 -125 -337 -259 -41 -26 -122 -79 -180 -119 -58 -40 -121 -82 -140 -93
-19 -12 -105 -64 -191 -117 -87 -52 -172 -103 -190 -112 l-33 -17 34 43 c19
24 37 46 40 49 8 7 167 222 218 295 23 33 83 110 133 170 50 61 125 153 167
205 42 52 79 97 82 100 8 6 153 186 207 256 l42 55 -1 152 c-2 135 1 159 21
217 42 119 136 229 271 315 116 74 162 89 275 90 97 0 102 -1 148 -32 51 -35
51 -19 0 28 -116 108 -314 75 -524 -86 -163 -126 -243 -271 -256 -462 l-6 -93
-42 -20 c-94 -45 -224 -189 -336 -372 -54 -86 -209 -385 -209 -403 0 -5 -7
-19 -16 -30 -14 -19 -15 -19 -37 5 -185 203 -265 334 -324 530 -21 71 -26 112
-30 253 -6 176 1 238 39 357 97 308 367 599 661 713 121 47 191 56 382 53 170
-3 185 -5 279 -35z m-344 -1140 c0 -24 -45 -107 -78 -147 -15 -17 -34 -41 -42
-54 -8 -12 -28 -39 -45 -59 -16 -20 -61 -79 -99 -131 -39 -52 -96 -125 -128
-162 -33 -37 -75 -91 -94 -120 -20 -29 -45 -61 -55 -71 -19 -18 -20 -18 -13
10 4 15 28 71 54 123 152 310 310 530 440 611 47 29 60 29 60 0z m-88 -868
c-8 -43 -16 -84 -18 -90 -2 -10 -34 -13 -115 -13 l-112 0 39 27 c21 15 68 47
103 71 36 24 76 52 89 63 14 10 25 19 26 19 1 0 -4 -35 -12 -77z" />
        <path d="M2089 2063 c-13 -16 -12 -17 4 -4 9 7 17 15 17 17 0 8 -8 3 -21 -13z" />
        <path
            d="M2145 2046 c-22 -16 -15 -50 11 -54 25 -4 47 19 38 41 -8 22 -29 28
-49 13z m25 -16 c-11 -7 -11 -10 -2 -10 7 0 10 -5 7 -10 -8 -13 -25 -3 -25 16
0 8 8 14 18 14 14 0 15 -2 2 -10z" />
        <path
            d="M2275 2004 c-4 -10 -11 -27 -16 -36 -12 -24 -11 -38 2 -38 6 0 9 7 5
15 -3 8 -2 15 3 15 10 0 25 50 17 58 -3 2 -8 -4 -11 -14z" />
        <path d="M2220 1936 c0 -2 7 -9 15 -16 13 -11 14 -10 9 4 -5 14 -24 23 -24 12z" />
    </g>
</svg>